#!OML:ASF H:\Dans Jumps\Project 1\Capture day 1\Session 1\subject.ASF
:FULLY-SPECIFIED
:DEGREES
305
root 0.457493 15.7448 -14.2247 17.9864 -0.452952 -2.47888
lowerback 13.6988 -0.324477 -0.362603
upperback 2.70379 -0.327017 2.79382
thorax -4.8086 -0.142213 3.20265
lowerneck -20.5261 1.12723 -1.58908
upperneck 20.2272 2.30059 -0.985919
head 9.80767 0.816476 0.243866
rclavicle 4.17448e-015 -5.76476e-015
rhumerus -32.2244 -13.9314 -75.7435
rradius 24.6007
rwrist 29.8481
rhand -18.6461 -26.2065
rfingers 7.12502
rthumb 7.64679 -56.0483
lclavicle 4.17448e-015 -5.76476e-015
lhumerus -25.7862 12.4304 81.717
lradius 12.1966
lwrist -5.65375
lhand -23.6152 -3.58006
lfingers 7.12502
lthumb 2.84896 26.3807
rfemur -48.5144 0.687289 21.9725
rtibia 62.918
rfoot -31.6497 -13.9034
rtoes 1.9375
lfemur -48.5031 5.15862 -19.1001
ltibia 62.804
lfoot -27.36 19.3254
ltoes -6.78354
306
root 0.448134 15.6893 -14.1793 18.0932 -0.460099 -2.53193
lowerback 13.9219 -0.264107 -0.417783
upperback 2.5303 -0.24691 2.82989
thorax -5.11831 -0.0970795 3.26437
lowerneck -20.8276 1.08625 -1.62857
upperneck 20.1932 2.25349 -0.945873
head 9.84961 0.795362 0.259599
rclavicle 2.18663e-015 -7.7526e-015
rhumerus -31.7572 -13.8986 -75.8495
rradius 24.5408
rwrist 30.1947
rhand -18.7426 -26.2224
rfingers 7.12502
rthumb 7.55361 -56.0675
lclavicle 2.18663e-015 -7.7526e-015
lhumerus -25.1178 14.1261 81.1497
lradius 11.7748
lwrist -7.0227
lhand -23.7526 -3.6266
lfingers 7.12502
lthumb 2.71633 26.3358
rfemur -48.8421 0.790056 22.0521
rtibia 63.6621
rfoot -31.7086 -14.2441
rtoes 2.00494
lfemur -48.8639 5.29851 -19.038
ltibia 63.6126
lfoot -27.4958 19.381
ltoes -7.03141
307
root 0.43825 15.6325 -14.1306 18.1612 -0.48211 -2.58205
lowerback 14.1409 -0.200202 -0.479979
upperback 2.35881 -0.163715 2.86194
thorax -5.42467 -0.0501202 3.32477
lowerneck -21.1092 1.05018 -1.66205
upperneck 20.1614 2.21303 -0.913995
head 9.88881 0.776935 0.272225
rclavicle -7.55382e-015 2.98177e-015
rhumerus -31.2382 -13.9122 -75.9437
rradius 24.4762
rwrist 30.634
rhand -18.7747 -26.2469
rfingers 7.12502
rthumb 7.52262 -56.0931
lclavicle -7.55382e-015 2.98177e-015
lhumerus -24.4424 15.8088 80.6196
lradius 11.4036
lwrist -8.48034
lhand -23.8944 -3.64577
lfingers 7.12502
lthumb 2.57937 26.3184
rfemur -49.1165 0.869412 22.14
rtibia 64.4046
rfoot -31.7478 -14.6361
rtoes 1.96084
lfemur -49.168 5.49805 -18.9839
ltibia 64.4246
lfoot -27.6642 19.444
ltoes -7.61641
308
root 0.42807 15.5758 -14.0784 18.1909 -0.514083 -2.63796
lowerback 14.3516 -0.134701 -0.535415
upperback 2.19082 -0.0778659 2.89283
thorax -5.7238 -0.00184443 3.37896
lowerneck -21.3761 1.01885 -1.69277
upperneck 20.1348 2.17975 -0.88866
head 9.92726 0.761286 0.282995
rclavicle 1.39149e-015 -1.0138e-014
rhumerus -30.6685 -13.9735 -76.0214
rradius 24.3992
rwrist 31.1492
rhand -18.7746 -26.2325
rfingers 7.12502
rthumb 7.52276 -56.0787
lclavicle 1.39149e-015 -1.0138e-014
lhumerus -23.7605 17.4512 80.1375
lradius 11.0798
lwrist -10.0405
lhand -24.0646 -3.69294
lfingers 7.12502
lthumb 2.41498 26.2731
rfemur -49.3263 0.929862 22.2423
rtibia 65.1288
rfoot -31.7857 -15.0411
rtoes 1.76821
lfemur -49.409 5.75269 -18.9251
ltibia 65.2282
lfoot -27.8708 19.5123
ltoes -8.53203
309
root 0.41796 15.5199 -14.0224 18.1886 -0.554957 -2.70874
lowerback 14.5449 -0.0696428 -0.571745
upperback 2.02515 0.0100579 2.92504
thorax -6.01188 0.0471141 3.42254
lowerneck -21.6254 0.991482 -1.72601
upperneck 20.1157 2.15323 -0.865724
head 9.96513 0.748281 0.294187
rclavicle -1.59028e-015 -1.76918e-014
rhumerus -30.051 -14.0499 -76.0981
rradius 24.3338
rwrist 31.6222
rhand -18.7383 -26.1878
rfingers 7.12502
rthumb 7.5578 -56.0328
lclavicle -1.59028e-015 -1.76918e-014
lhumerus -23.077 19.0226 79.7142
lradius 10.8062
lwrist -11.6447
lhand -24.2821 -3.83034
lfingers 7.12502
lthumb 2.20487 26.138
rfemur -49.4698 0.978537 22.3641
rtibia 65.8191
rfoot -31.8425 -15.4352
rtoes 1.36168
lfemur -49.5874 6.05563 -18.8499
ltibia 66.0115
lfoot -28.1239 19.5844
ltoes -9.70491
310
root 0.408293 15.4662 -13.9626 18.1611 -0.59813 -2.79662
lowerback 14.714 -0.00878276 -0.580638
upperback 1.85922 0.0966924 2.95929
thorax -6.28757 0.0948042 3.45212
lowerneck -21.8591 0.968035 -1.76209
upperneck 20.1131 2.13332 -0.843304
head 10.006 0.737894 0.306573
rclavicle -3.37934e-015 1.86858e-014
rhumerus -29.399 -14.1098 -76.1884
rradius 24.3081
rwrist 31.971
rhand -18.6832 -26.1555
rfingers 7.12502
rthumb 7.61094 -55.9985
lclavicle -3.37934e-015 1.86858e-014
lhumerus -22.3883 20.4639 79.3701
lradius 10.5883
lwrist -13.1506
lhand -24.55 -4.07357
lfingers 7.12502
lthumb 1.94619 25.8973
rfemur -49.5398 1.01705 22.5044
rtibia 66.4589
rfoot -31.9478 -15.8098
rtoes 0.665622
lfemur -49.6998 6.39438 -18.7548
ltibia 66.7584
lfoot -28.4251 19.6541
ltoes -11.0058
311
root 0.399166 15.416 -13.8989 18.1204 -0.643401 -2.90101
lowerback 14.8465 0.0457286 -0.562475
upperback 1.69277 0.179181 2.99428
thorax -6.54394 0.139592 3.46698
lowerneck -22.0827 0.948312 -1.80313
upperneck 20.1298 2.1189 -0.814422
head 10.0517 0.73023 0.322871
rclavicle 4.37326e-015 -1.55052e-014
rhumerus -28.7186 -14.1356 -76.3027
rradius 24.3336
rwrist 32.1807
rhand -18.6415 -26.1362
rfingers 7.12502
rthumb 7.65123 -55.9778
lclavicle 4.37326e-015 -1.55052e-014
lhumerus -21.6833 21.6644 79.1407
lradius 10.4532
lwrist -14.3219
lhand -24.8212 -4.32818
lfingers 7.12502
lthumb 1.68424 25.6449
rfemur -49.5372 1.05114 22.6585
rtibia 67.033
rfoot -32.1223 -16.1425
rtoes -0.277083
lfemur -49.7484 6.75753 -18.6406
ltibia 67.45
lfoot -28.7669 19.7121
ltoes -12.2778
312
root 0.390608 15.3707 -13.8313 18.0777 -0.690232 -3.01394
lowerback 14.9327 0.0937319 -0.525582
upperback 1.52497 0.255879 3.02785
thorax -6.77622 0.180699 3.4699
lowerneck -22.2981 0.930983 -1.8458
upperneck 20.1673 2.10778 -0.781764
head 10.1034 0.724178 0.341312
rclavicle 3.97569e-016 6.75868e-015
rhumerus -28.0213 -14.1259 -76.443
rradius 24.4269
rwrist 32.2668
rhand -18.6296 -26.157
rfingers 7.12502
rthumb 7.66269 -55.9982
lclavicle 3.97569e-016 6.75868e-015
lhumerus -20.9544 22.5148 79.0579
lradius 10.4161
lwrist -14.9507
lhand -25.1353 -4.63998
lfingers 7.12502
lthumb 1.38093 25.3353
rfemur -49.4649 1.08073 22.8176
rtibia 67.5255
rfoot -32.3541 -16.44
rtoes -1.40933
lfemur -49.7341 7.13431 -18.5182
ltibia 68.0637
lfoot -29.1314 19.7552
ltoes -13.3934
313
root 0.382318 15.3322 -13.7597 18.0441 -0.731356 -3.12043
lowerback 14.9651 0.131769 -0.487573
upperback 1.35246 0.319211 3.0583
thorax -6.98317 0.214888 3.47077
lowerneck -22.4809 0.916159 -1.89136
upperneck 20.2046 2.09945 -0.745366
head 10.149 0.719828 0.361777
rclavicle -7.55382e-015 -7.95139e-016
rhumerus -27.3177 -14.0781 -76.6099
rradius 24.593
rwrist 32.27
rhand -18.6702 -26.2352
rfingers 7.12502
rthumb 7.62353 -56.0778
lclavicle -7.55382e-015 -7.95139e-016
lhumerus -20.1936 22.9267 79.1394
lradius 10.5027
lwrist -14.8631
lhand -25.3585 -4.7801
lfingers 7.12502
lthumb 1.16531 25.1965
rfemur -49.3262 1.09284 22.9717
rtibia 67.9194
rfoot -32.6204 -16.7205
rtoes -2.7046
lfemur -49.6547 7.50682 -18.4028
ltibia 68.5723
lfoot -29.5001 19.7809
ltoes -14.3095
314
root 0.374038 15.3027 -13.684 18.0242 -0.766687 -3.20482
lowerback 14.9377 0.162003 -0.469386
upperback 1.1785 0.368252 3.08511
thorax -7.15789 0.242275 3.48123
lowerneck -22.6446 0.901737 -1.93941
upperneck 20.2489 2.09251 -0.709824
head 10.1937 0.71582 0.38249
rclavicle 1.33186e-014 -2.78299e-015
rhumerus -26.6081 -14.0084 -76.7906
rradius 24.8185
rwrist 32.2619
rhand -18.7738 -26.3461
rfingers 7.12502
rthumb 7.52351 -56.1923
lclavicle 1.33186e-014 -2.78299e-015
lhumerus -19.4132 22.905 79.3692
lradius 10.7031
lwrist -14.1074
lhand -25.5952 -4.92352
lfingers 7.12502
lthumb 0.936682 25.0542
rfemur -49.1195 1.07999 23.1083
rtibia 68.1968
rfoot -32.881 -16.9904
rtoes -4.03457
lfemur -49.5019 7.85951 -18.3096
ltibia 68.9483
lfoot -29.8489 19.7856
ltoes -15.0064
315
root 0.365531 15.284 -13.6041 18.0181 -0.795618 -3.24846
lowerback 14.8505 0.184278 -0.491198
upperback 1.00165 0.399023 3.10407
thorax -7.30162 0.261653 3.50924
lowerneck -22.7782 0.88927 -1.9838
upperneck 20.2982 2.08809 -0.680926
head 10.2349 0.712514 0.400482
rclavicle 6.16232e-015 -1.15295e-014
rhumerus -25.9058 -13.9277 -76.9781
rradius 25.0911
rwrist 32.3068
rhand -18.9408 -26.4885
rfingers 7.12502
rthumb 7.36226 -56.3404
lclavicle 6.16232e-015 -1.15295e-014
lhumerus -18.6416 22.4978 79.7041
lradius 11.0095
lwrist -12.8241
lhand -25.8525 -5.0909
lfingers 7.12502
lthumb 0.68822 24.8877
rfemur -48.8366 1.03352 23.2097
rtibia 68.337
rfoot -33.1121 -17.2468
rtoes -5.30062
lfemur -49.2608 8.17883 -18.2562
ltibia 69.1632
lfoot -30.1547 19.7652
ltoes -15.5309
316
root 0.356739 15.2784 -13.5195 18.0156 -0.811184 -3.24111
lowerback 14.7119 0.197257 -0.561996
upperback 0.829137 0.408143 3.11511
thorax -7.41091 0.271718 3.56062
lowerneck -22.8936 0.877871 -2.0271
upperneck 20.3592 2.08587 -0.656976
head 10.2772 0.70959 0.416835
rclavicle -5.96354e-015 -2.54444e-014
rhumerus -25.205 -13.834 -77.1703
rradius 25.3901
rwrist 32.437
rhand -19.1609 -26.6784
rfingers 7.12502
rthumb 7.14984 -56.5376
lclavicle -5.96354e-015 -2.54444e-014
lhumerus -17.8937 21.804 80.0997
lradius 11.4017
lwrist -11.2452
lhand -26.1321 -5.27974
lfingers 7.12502
lthumb 0.418141 24.6996
rfemur -48.4517 0.945954 23.2652
rtibia 68.3164
rfoot -33.3158 -17.4643
rtoes -6.40549
lfemur -48.9058 8.44735 -18.2469
ltibia 69.1913
lfoot -30.4001 19.7092
ltoes -15.9137
